<svg width="19" height="24" viewBox="0 0 19 24" fill="none" xmlns="http://www.w3.org/2000/svg">
<path d="M0.542778 1.00006C0.542778 5.29583 0.542778 7.70429 0.542778 12.0001C0.542778 16.2958 0.542778 18.7043 0.542778 23M0.542778 1.00006C4.35295 2.71339 6.43863 3.81607 10 6C13.4754 8.13122 15.3588 9.454 18.5428 12.0001M0.542778 1.00006C12.3633 9.27586 18.0301 13.4008 7 12.0001M0.542778 23C1.63398 7.49049 2.58258 -0.672025 7 12.0001M0.542778 23C4.35294 21.2866 6.43861 20.1839 10 18C13.4754 15.8688 15.3587 14.546 18.5428 12.0001M18.5428 12.0001C4.74968 19.2636 0.313366 20.1499 7 12.0001" stroke="#d1e4fa" stroke-width="0.7"/>
</svg>
